<svg width="11" height="25" viewBox="0 0 11 25" fill="none" xmlns="http://www.w3.org/2000/svg">
<path d="M10.3949 21.6743L10.0685 23.0109C9.08932 23.398 8.30717 23.6927 7.72474 23.8953C7.14168 24.0985 6.4642 24.1996 5.6923 24.1996C4.50693 24.1996 3.58492 23.9087 2.92733 23.3309C2.26974 22.7508 1.94084 22.0157 1.94084 21.124C1.94084 20.7788 1.96471 20.4237 2.01433 20.062C2.06436 19.6998 2.14392 19.2919 2.25278 18.836L3.47647 14.4973C3.58534 14.0818 3.67787 13.6882 3.75199 13.3159C3.82715 12.946 3.86336 12.6056 3.86336 12.2992C3.86336 11.7451 3.74885 11.3575 3.52086 11.1396C3.29287 10.9224 2.85783 10.812 2.21196 10.812C1.89562 10.812 1.57049 10.8628 1.23908 10.9609C0.906204 11.0595 0.621688 11.1547 0.382812 11.2432L0.710037 9.90563C1.51166 9.57868 2.27791 9.2987 3.01087 9.06633C3.74382 8.83333 4.43637 8.71672 5.09145 8.71672C6.26866 8.71672 7.17706 9.00173 7.81497 9.57176C8.45288 10.1422 8.77173 10.8817 8.77173 11.7929C8.77173 11.9814 8.75079 12.3136 8.70578 12.7885C8.66182 13.2643 8.57996 13.7003 8.46062 14.0969L7.24217 18.4182C7.14231 18.7653 7.05249 19.1621 6.9744 19.6086C6.8938 20.0521 6.85528 20.391 6.85528 20.6184C6.85528 21.1922 6.98299 21.5839 7.23903 21.7922C7.49696 22.0004 7.94121 22.104 8.57221 22.104C8.86845 22.104 9.20552 22.0514 9.58005 21.948C9.95355 21.8446 10.2259 21.7538 10.3949 21.6743ZM10.7039 3.53222C10.7039 4.28512 10.4206 4.92812 9.85138 5.45683C9.2836 5.98742 8.59943 6.25293 7.79906 6.25293C6.99618 6.25293 6.31032 5.98742 5.73606 5.45683C5.16284 4.92791 4.8756 4.28512 4.8756 3.53222C4.8756 2.78079 5.16284 2.13674 5.73606 1.60132C6.30928 1.06674 6.99639 0.799561 7.79906 0.799561C8.59922 0.799561 9.2836 1.06737 9.85138 1.60132C10.421 2.13674 10.7039 2.781 10.7039 3.53222Z" fill="#0F4471"/>
</svg>
